<?xml version="1.0" encoding="utf-8"?>
<svg viewBox="367.50006103515625 303.8999938964844 137.69998168945312 164.5" width="137.69998168945312" height="164.5" xmlns="http://www.w3.org/2000/svg"><path d="M481.7,377.9c0,0-11.5-4.3-14.6-3c-1.5,0.6-2.1,3.2-2.3,5.7l-15.4-8.9c-0.6-33.2-6-67.8-13.9-64.8&#10;&#9;&#9;&#9;c-9,3.4-11.7,24.8-12.1,64.9l-15.3,8.9c-0.2-2.5-0.9-5.1-2.3-5.7c-3-1.2-14.6,3-14.6,3l1.3,11.6l-25,14.5l1.8,18.8l54.5-12&#10;&#9;&#9;&#9;c0.3,8.5,0.7,16.4,1.2,23.5l-27.8,18.3l2.4,12.8l28.1-10.6c1.9,8.6,4.6,13.5,8.3,13.1c4-0.4,6.5-5.4,8.1-13.4l28.9,10.9l2.4-12.8&#10;&#9;&#9;&#9;l-28.9-19.1c0.5-7,0.9-14.8,1.3-23l55.6,12.3l1.8-18.8l-25-14.5L481.7,377.9z" transform="matrix(1, 0, 0, 1, 1.1368683772161603e-13, 0)" style="fill: rgb(204, 204, 204); opacity: 1;"/></svg>